<svg width="373" height="373" viewBox="0 0 373 373" fill="none" xmlns="http://www.w3.org/2000/svg">
<mask id="mask0_3_97" style="mask-type:luminance" maskUnits="userSpaceOnUse" x="0" y="0" width="373" height="373">
<path d="M372.383 0H0V372.383H372.383V0Z" fill="white"/>
</mask>
<g mask="url(#mask0_3_97)">
<path fill-rule="evenodd" clip-rule="evenodd" d="M248.527 373.225H187.144C189.323 342.037 194.854 313.373 203.738 287.219C213.849 257.838 226.484 232.526 241.644 211.269C253.879 194.109 267.121 179.102 281.343 166.259H145.955V117.897H336.409V169.639C321.125 183.764 307.041 200.772 294.144 220.649C281.384 240.402 270.708 264.156 262.114 291.909C254.624 316.462 250.099 343.568 248.541 373.225H248.527Z" fill="black"/>
<path fill-rule="evenodd" clip-rule="evenodd" d="M245.699 0.841431C292.24 0.841431 335.747 13.8078 372.811 36.3059V98.2272C338.671 68.8598 294.268 51.1068 245.699 51.1068C138.009 51.1068 50.7068 138.409 50.7068 246.099C50.7068 294.654 68.4597 339.071 97.8272 373.211H35.9058C13.394 336.147 0.441409 292.64 0.441409 246.099C0.441409 184.923 22.8291 128.988 59.8661 86.0333L49.4378 75.6051L26.1949 98.848L0.427612 73.0807L72.6669 0.841431L98.4342 26.6087L75.1912 49.8516L85.6195 60.2799C128.574 23.2429 184.523 0.841431 245.699 0.841431Z" fill="#FF6808"/>
</g>
</svg>
