<svg width="1200" height="322" viewBox="0 0 1200 322" fill="none" xmlns="http://www.w3.org/2000/svg">
<path d="M1190.28 211.226C1184.36 202.608 1175.3 195.672 1163.37 190.611C1151.56 185.454 1135.08 180.862 1114.41 176.973C1101.87 174.629 1092.11 172.313 1085.38 170.12C1078.91 167.955 1074.29 165.459 1071.66 162.688C1069.08 159.847 1067.77 155.724 1067.77 150.456C1067.77 145.864 1069.16 141.879 1071.91 138.597C1074.68 135.15 1078.72 132.53 1083.95 130.793C1089.23 128.89 1095.54 127.938 1102.75 127.938C1114.81 127.938 1124.1 130.6 1130.42 135.84C1136.69 140.928 1140.34 148.126 1141.28 157.255L1141.38 158.206H1197.6L1197.54 157.103C1196.84 141.659 1192.58 128.269 1184.86 117.307C1177.13 106.192 1166.19 97.7118 1152.31 92.0857C1138.51 86.4872 1121.83 83.6604 1102.75 83.6604C1083.68 83.6604 1066.23 86.8457 1052.13 93.1475C1037.99 99.3252 1027.17 108.095 1020 119.223C1012.99 130.338 1009.43 143.231 1009.43 157.572C1009.43 170.81 1012.28 181.882 1017.94 190.515C1023.71 199.133 1032.48 206.069 1044.01 211.144C1055.55 216.163 1071.54 220.672 1091.5 224.574C1104.04 227.194 1113.88 229.718 1120.75 232.048C1127.48 234.337 1132.36 237.247 1135.3 240.722C1138.17 243.99 1139.61 248.527 1139.61 254.222C1139.61 260.73 1136.57 266.053 1130.28 270.466C1123.96 274.768 1114.49 276.961 1102.13 276.961C1088.43 276.961 1077.73 273.817 1070.32 267.598C1062.96 261.42 1058.95 252.898 1058.41 242.253L1058.35 241.246H1000.81L1000.88 242.363C1002.42 267.473 1012.02 287.11 1029.41 300.747C1046.74 314.33 1071.14 321.225 1101.93 321.225C1122.8 321.225 1140.68 318.039 1155.04 311.751C1169.61 305.436 1180.76 296.528 1188.21 285.262C1195.64 273.872 1199.42 260.193 1199.42 244.611C1199.42 230.945 1196.34 219.721 1190.28 211.24V211.226Z" fill="white"/>
<path d="M946.299 12.9207H887.115V88.6522H797.167V72.753C797.167 58.7016 808.571 47.2978 822.622 47.2978H842.7V0.786011H817.892C799.925 0.786011 785.391 1.95811 773.339 8.3564C761.369 14.7133 752.448 23.4834 746.656 34.6804C740.878 45.712 737.996 58.3293 737.996 72.5324V88.6385H694.877V136.267H737.996V316.371H797.181V136.267H887.143V250.016C887.143 263.737 889.418 275.885 893.899 286.131C898.422 296.321 906.352 304.567 917.48 310.634C928.552 316.674 943.721 319.735 962.557 319.735H992.053V270.452H976.085C965.425 270.452 957.676 268.439 953.042 264.454C948.575 260.372 946.313 254.594 946.313 247.286V136.24H998.81V88.6247H946.313V12.8931L946.299 12.9207Z" fill="white"/>
<path d="M680.632 88.4454H621.448V316.219H680.632V88.4454Z" fill="white"/>
<path d="M668.856 4.60566C663.74 1.54441 657.742 0 651.04 0C644.339 0 638.271 1.54441 633.031 4.60566C627.764 7.51523 623.544 11.7348 620.469 17.1403C617.546 22.3802 616.07 28.3511 616.07 34.8873C616.07 41.4234 617.546 47.4494 620.483 52.8549C623.544 58.0949 627.764 62.3006 633.031 65.3619H633.045C638.299 68.2852 644.352 69.7607 651.054 69.7607C657.756 69.7607 663.74 68.2852 668.87 65.3619C674.138 62.3006 678.288 58.0948 681.211 52.8411C684.273 47.4632 685.831 41.4097 685.831 34.8873C685.831 28.3649 684.273 22.3802 681.225 17.154C678.302 11.7624 674.138 7.54282 668.884 4.63325L668.856 4.60566Z" fill="white"/>
<path d="M568.552 94.4437C556.5 87.287 541.814 83.6466 524.895 83.6466C509.506 83.6466 495.813 86.9285 484.188 93.382C473.295 99.3803 464.304 107.751 457.423 118.286V13.0861H398.239V316.219H457.423V186.157C457.423 176.491 459.353 167.735 463.145 160.123C467.062 152.539 472.674 146.499 479.831 142.169C486.987 137.839 495.564 135.647 505.327 135.647C518.414 135.647 528.659 139.811 535.788 148.029C543.069 156.138 546.765 167.914 546.765 183.013V316.205H605.949V175.291C605.949 155.876 602.694 139.149 596.269 125.58C589.953 111.943 580.631 101.463 568.566 94.4299L568.552 94.4437Z" fill="white"/>
<path d="M345.315 190.611C333.497 185.454 317.019 180.862 296.349 176.973C283.828 174.629 274.051 172.326 267.322 170.12C260.855 167.955 256.235 165.459 253.601 162.688C251.023 159.847 249.713 155.724 249.713 150.456C249.713 145.864 251.105 141.879 253.85 138.597C256.621 135.15 260.662 132.53 265.888 130.793C271.169 128.89 277.485 127.938 284.697 127.938C296.749 127.938 306.043 130.6 312.358 135.84C318.632 140.914 322.286 148.126 323.224 157.255L323.321 158.206H379.54L379.485 157.103C378.782 141.659 374.521 128.269 366.799 117.307C359.077 106.192 348.128 97.7118 334.256 92.0857C320.453 86.4872 303.781 83.6604 284.697 83.6604C265.612 83.6604 248.168 86.8457 234.076 93.1475C219.928 99.3252 209.117 108.095 201.946 119.223C194.927 130.338 191.37 143.244 191.37 157.572C191.37 170.796 194.238 181.882 199.878 190.515C205.656 199.133 214.426 206.069 225.954 211.144L226.064 211.185C237.592 216.191 253.546 220.686 273.458 224.561C285.993 227.181 295.825 229.704 302.706 232.035C309.435 234.324 314.316 237.233 317.253 240.708C320.122 243.976 321.569 248.513 321.569 254.208C321.569 260.717 318.522 266.039 312.234 270.452C305.918 274.754 296.445 276.947 284.09 276.947C270.383 276.947 259.682 273.803 252.278 267.584C244.914 261.406 240.901 252.884 240.363 242.253L240.308 241.246H182.779L182.848 242.363C184.392 267.473 193.99 287.11 211.378 300.747C228.711 314.33 253.105 321.225 283.897 321.225C304.774 321.225 322.645 318.039 337.014 311.737C351.575 305.422 362.745 296.514 370.177 285.248C377.61 273.858 381.388 260.179 381.388 244.597C381.388 230.931 378.313 219.707 372.246 211.226C366.33 202.608 357.27 195.672 345.342 190.611H345.315Z" fill="white"/>
<path d="M215.57 70.974V12.4103H0V67.1544H153.256C137.163 81.6884 122.174 98.6632 108.33 118.093C91.1757 142.141 76.8761 170.796 65.4308 204.056C54.1373 237.302 47.6287 274.161 45.9188 314.633H115.624C116.631 275.857 121.912 240.777 131.496 209.365C141.217 177.952 153.297 151.063 167.748 128.71C182.338 106.206 198.278 86.9698 215.584 70.974H215.57Z" fill="white"/>
</svg>
